<svg xmlns="http://www.w3.org/2000/svg" xmlns:xlink="http://www.w3.org/1999/xlink" width="500" zoomAndPan="magnify" viewBox="0 0 375 74.999997" height="100" preserveAspectRatio="xMidYMid meet" version="1.0"><defs><g/></defs><g fill="#f0ece5" fill-opacity="1"><g transform="translate(38.427254, 49.104368)"><g><path d="M 9.109375 0.4375 C 6.640625 0.4375 4.660156 -0.253906 3.171875 -1.640625 C 1.679688 -3.035156 0.9375 -5.019531 0.9375 -7.59375 L 5.59375 -7.59375 C 5.613281 -6.40625 5.890625 -5.457031 6.421875 -4.75 C 6.953125 -4.050781 7.8125 -3.703125 9 -3.703125 C 10.113281 -3.703125 10.925781 -4.035156 11.4375 -4.703125 C 11.945312 -5.367188 12.203125 -6.242188 12.203125 -7.328125 L 12.203125 -25.421875 L 16.84375 -25.421875 L 16.84375 -7.328125 C 16.84375 -4.835938 16.144531 -2.921875 14.75 -1.578125 C 13.363281 -0.234375 11.484375 0.4375 9.109375 0.4375 Z M 9.109375 0.4375 "/></g></g></g><g fill="#f0ece5" fill-opacity="1"><g transform="translate(64.722396, 49.104368)"><g><path d="M 14.375 0.4375 C 11.832031 0.4375 9.609375 -0.117188 7.703125 -1.234375 C 5.804688 -2.347656 4.320312 -3.890625 3.25 -5.859375 C 2.175781 -7.835938 1.640625 -10.117188 1.640625 -12.703125 C 1.640625 -15.296875 2.175781 -17.578125 3.25 -19.546875 C 4.320312 -21.523438 5.804688 -23.070312 7.703125 -24.1875 C 9.609375 -25.300781 11.832031 -25.859375 14.375 -25.859375 C 16.894531 -25.859375 19.109375 -25.300781 21.015625 -24.1875 C 22.929688 -23.070312 24.421875 -21.523438 25.484375 -19.546875 C 26.554688 -17.578125 27.09375 -15.296875 27.09375 -12.703125 C 27.09375 -10.117188 26.554688 -7.835938 25.484375 -5.859375 C 24.421875 -3.890625 22.929688 -2.347656 21.015625 -1.234375 C 19.109375 -0.117188 16.894531 0.4375 14.375 0.4375 Z M 14.375 -3.734375 C 16.800781 -3.734375 18.734375 -4.53125 20.171875 -6.125 C 21.609375 -7.726562 22.328125 -9.921875 22.328125 -12.703125 C 22.328125 -15.492188 21.609375 -17.6875 20.171875 -19.28125 C 18.734375 -20.875 16.800781 -21.671875 14.375 -21.671875 C 11.957031 -21.671875 10.019531 -20.875 8.5625 -19.28125 C 7.113281 -17.6875 6.390625 -15.492188 6.390625 -12.703125 C 6.390625 -9.921875 7.113281 -7.726562 8.5625 -6.125 C 10.019531 -4.53125 11.957031 -3.734375 14.375 -3.734375 Z M 14.375 -3.734375 "/></g></g></g><g fill="#f0ece5" fill-opacity="1"><g transform="translate(100.423714, 49.104368)"><g><path d="M 2.46875 0 L 2.46875 -25.421875 L 11.796875 -25.421875 C 13.835938 -25.421875 15.515625 -25.070312 16.828125 -24.375 C 18.148438 -23.6875 19.132812 -22.753906 19.78125 -21.578125 C 20.4375 -20.410156 20.765625 -19.113281 20.765625 -17.6875 C 20.765625 -16.132812 20.359375 -14.71875 19.546875 -13.4375 C 18.742188 -12.15625 17.484375 -11.222656 15.765625 -10.640625 L 21.03125 0 L 15.6875 0 L 10.96875 -10.015625 L 7.125 -10.015625 L 7.125 0 Z M 7.125 -13.4375 L 11.515625 -13.4375 C 13.054688 -13.4375 14.191406 -13.8125 14.921875 -14.5625 C 15.648438 -15.3125 16.015625 -16.300781 16.015625 -17.53125 C 16.015625 -18.75 15.65625 -19.71875 14.9375 -20.4375 C 14.226562 -21.164062 13.070312 -21.53125 11.46875 -21.53125 L 7.125 -21.53125 Z M 7.125 -13.4375 "/></g></g></g><g fill="#f0ece5" fill-opacity="1"><g transform="translate(130.023728, 49.104368)"><g><path d="M 13.578125 0.4375 C 11.179688 0.4375 9.085938 -0.101562 7.296875 -1.1875 C 5.503906 -2.28125 4.113281 -3.800781 3.125 -5.75 C 2.132812 -7.695312 1.640625 -9.96875 1.640625 -12.5625 C 1.640625 -15.175781 2.148438 -17.484375 3.171875 -19.484375 C 4.203125 -21.484375 5.664062 -23.046875 7.5625 -24.171875 C 9.46875 -25.296875 11.726562 -25.859375 14.34375 -25.859375 C 17.320312 -25.859375 19.789062 -25.140625 21.75 -23.703125 C 23.707031 -22.273438 24.976562 -20.304688 25.5625 -17.796875 L 20.375 -17.796875 C 19.988281 -18.984375 19.285156 -19.90625 18.265625 -20.5625 C 17.242188 -21.226562 15.9375 -21.5625 14.34375 -21.5625 C 11.800781 -21.5625 9.835938 -20.753906 8.453125 -19.140625 C 7.078125 -17.535156 6.390625 -15.332031 6.390625 -12.53125 C 6.390625 -9.71875 7.070312 -7.539062 8.4375 -6 C 9.8125 -4.46875 11.671875 -3.703125 14.015625 -3.703125 C 16.316406 -3.703125 18.050781 -4.320312 19.21875 -5.5625 C 20.394531 -6.8125 21.109375 -8.457031 21.359375 -10.5 L 14.921875 -10.5 L 14.921875 -13.984375 L 26.03125 -13.984375 L 26.03125 0 L 21.75 0 L 21.390625 -3.34375 C 20.566406 -2.132812 19.535156 -1.203125 18.296875 -0.546875 C 17.066406 0.109375 15.492188 0.4375 13.578125 0.4375 Z M 13.578125 0.4375 "/></g></g></g><g fill="#f0ece5" fill-opacity="1"><g transform="translate(165.071338, 49.104368)"><g><path d="M 2.46875 0 L 2.46875 -25.421875 L 19.0625 -25.421875 L 19.0625 -21.671875 L 7.125 -21.671875 L 7.125 -14.703125 L 17.96875 -14.703125 L 17.96875 -11.078125 L 7.125 -11.078125 L 7.125 -3.734375 L 19.0625 -3.734375 L 19.0625 0 Z M 2.46875 0 "/></g></g></g><g fill="#f0ece5" fill-opacity="1"><g transform="translate(193.03708, 49.104368)"><g/></g></g><g fill="#f0ece5" fill-opacity="1"><g transform="translate(208.665022, 49.104368)"><g><path d="M 1.09375 0 L 10.453125 -25.421875 L 13.6875 -25.421875 L 23.015625 0 L 19.796875 0 L 17.46875 -6.53125 L 6.640625 -6.53125 L 4.28125 0 Z M 7.546875 -9 L 16.5625 -9 L 12.0625 -21.5625 Z M 7.546875 -9 "/></g></g></g><g fill="#f0ece5" fill-opacity="1"><g transform="translate(239.754043, 49.104368)"><g><path d="M 10.34375 0 L 0.796875 -25.421875 L 4.109375 -25.421875 L 12.125 -3.234375 L 20.21875 -25.421875 L 23.453125 -25.421875 L 13.90625 0 Z M 10.34375 0 "/></g></g></g><g fill="#f0ece5" fill-opacity="1"><g transform="translate(270.988338, 49.104368)"><g><path d="M 2.6875 0 L 2.6875 -25.421875 L 5.734375 -25.421875 L 5.734375 0 Z M 2.6875 0 "/></g></g></g><g fill="#f0ece5" fill-opacity="1"><g transform="translate(286.388283, 49.104368)"><g><path d="M 2.6875 0 L 2.6875 -25.421875 L 5.734375 -25.421875 L 5.734375 -2.4375 L 17.578125 -2.4375 L 17.578125 0 Z M 2.6875 0 "/></g></g></g><g fill="#f0ece5" fill-opacity="1"><g transform="translate(312.429209, 49.104368)"><g><path d="M 1.09375 0 L 10.453125 -25.421875 L 13.6875 -25.421875 L 23.015625 0 L 19.796875 0 L 17.46875 -6.53125 L 6.640625 -6.53125 L 4.28125 0 Z M 7.546875 -9 L 16.5625 -9 L 12.0625 -21.5625 Z M 7.546875 -9 "/></g></g></g></svg>